<svg width="24" height="23" viewBox="0 0 24 23" fill="none" xmlns="http://www.w3.org/2000/svg">
<path d="M8.30769 12.4196C8.30769 12.6926 8.22649 12.9594 8.07434 13.1863C7.9222 13.4133 7.70595 13.5902 7.45295 13.6946C7.19994 13.7991 6.92154 13.8264 6.65295 13.7731C6.38436 13.7199 6.13765 13.5885 5.94401 13.3955C5.75036 13.2024 5.61849 12.9565 5.56507 12.6888C5.51164 12.4211 5.53906 12.1437 5.64386 11.8915C5.74866 11.6393 5.92613 11.4238 6.15383 11.2721C6.38153 11.1205 6.64923 11.0396 6.92308 11.0396C7.2903 11.0396 7.64248 11.185 7.90215 11.4438C8.16181 11.7026 8.30769 12.0536 8.30769 12.4196ZM17.0769 11.0396C16.8031 11.0396 16.5354 11.1205 16.3077 11.2721C16.08 11.4238 15.9025 11.6393 15.7977 11.8915C15.6929 12.1437 15.6655 12.4211 15.7189 12.6888C15.7723 12.9565 15.9042 13.2024 16.0979 13.3955C16.2915 13.5885 16.5382 13.7199 16.8068 13.7731C17.0754 13.8264 17.3538 13.7991 17.6068 13.6946C17.8598 13.5902 18.076 13.4133 18.2282 13.1863C18.3803 12.9594 18.4615 12.6926 18.4615 12.4196C18.4615 12.0536 18.3157 11.7026 18.056 11.4438C17.7963 11.185 17.4441 11.0396 17.0769 11.0396ZM24 1.83922V11.9596C24 18.0468 18.6173 23 12 23C5.38269 23 0 18.0468 0 11.9596V1.83922C0.000169138 1.47541 0.108536 1.11982 0.311405 0.817375C0.514275 0.514935 0.802542 0.27922 1.13978 0.14002C1.47701 0.000819641 1.84808 -0.0356183 2.20609 0.0353107C2.56409 0.10624 2.89297 0.281352 3.15115 0.538518C3.16731 0.554618 3.18115 0.569569 3.195 0.58567L5.19231 2.87425C7.23455 1.59895 9.59581 0.922586 12.0058 0.922586C14.4157 0.922586 16.777 1.59895 18.8192 2.87425L20.805 0.58567C20.8188 0.569569 20.8327 0.554618 20.8488 0.538518C21.107 0.281352 21.4359 0.10624 21.7939 0.0353107C22.1519 -0.0356183 22.523 0.000819641 22.8602 0.14002C23.1975 0.27922 23.4857 0.514935 23.6886 0.817375C23.8915 1.11982 23.9998 1.47541 24 1.83922ZM22.1538 1.83922L19.6662 4.69132C19.514 4.86679 19.3009 4.9785 19.0696 5.00409C18.8384 5.02968 18.6059 4.96726 18.4188 4.82933C17.8557 4.41427 17.2514 4.05781 16.6154 3.76554V6.43939C16.6154 6.68339 16.5181 6.91741 16.345 7.08995C16.1719 7.26249 15.9371 7.35942 15.6923 7.35942C15.4475 7.35942 15.2127 7.26249 15.0396 7.08995C14.8665 6.91741 14.7692 6.68339 14.7692 6.43939V3.11001C14.1636 2.95475 13.5461 2.85012 12.9231 2.7972V6.43939C12.9231 6.68339 12.8258 6.91741 12.6527 7.08995C12.4796 7.26249 12.2448 7.35942 12 7.35942C11.7552 7.35942 11.5204 7.26249 11.3473 7.08995C11.1742 6.91741 11.0769 6.68339 11.0769 6.43939V2.7972C10.4539 2.85012 9.83635 2.95475 9.23077 3.11001V6.43939C9.23077 6.68339 9.13352 6.91741 8.96041 7.08995C8.7873 7.26249 8.55251 7.35942 8.30769 7.35942C8.06288 7.35942 7.82809 7.26249 7.65498 7.08995C7.48187 6.91741 7.38462 6.68339 7.38462 6.43939V3.76554C6.74859 4.05781 6.14428 4.41427 5.58115 4.82933C5.39449 4.96767 5.1623 5.03066 4.93104 5.00571C4.69978 4.98077 4.48649 4.86971 4.33385 4.69477L1.84615 1.83922V11.9596C1.84615 16.7507 5.90885 20.6999 11.0769 21.122V18.7805L9.50077 17.2095C9.41508 17.1241 9.34713 17.0226 9.30078 16.9109C9.25444 16.7993 9.23061 16.6796 9.23066 16.5588C9.23072 16.4379 9.25465 16.3183 9.30109 16.2067C9.34754 16.0951 9.41558 15.9937 9.50135 15.9083C9.67455 15.7358 9.90941 15.6389 10.1543 15.639C10.2755 15.6391 10.3955 15.663 10.5075 15.7092C10.6195 15.7555 10.7212 15.8234 10.8069 15.9088L12 17.098L13.1931 15.9088C13.2788 15.8234 13.3805 15.7555 13.4925 15.7092C13.6045 15.663 13.7245 15.6391 13.8457 15.639C13.967 15.639 14.087 15.6627 14.1991 15.7089C14.3111 15.7551 14.4129 15.8229 14.4987 15.9083C14.5844 15.9937 14.6525 16.0951 14.6989 16.2067C14.7454 16.3183 14.7693 16.4379 14.7693 16.5588C14.7694 16.6796 14.7456 16.7993 14.6992 16.9109C14.6529 17.0226 14.5849 17.1241 14.4992 17.2095L12.9231 18.7805V21.122C18.0912 20.6976 22.1538 16.7518 22.1538 11.9596V1.83922Z" fill="#05445E"/>
</svg>
