<svg width="20" height="22" viewBox="0 0 20 22" fill="none" xmlns="http://www.w3.org/2000/svg">
<path fill-rule="evenodd" clip-rule="evenodd" d="M5.76923 7.33062C5.46321 7.33062 5.16973 7.20187 4.95334 6.97269C4.73695 6.74351 4.61538 6.43268 4.61538 6.10858V4.89142C4.00335 4.89142 3.41638 5.14892 2.9836 5.60728C2.55082 6.06563 2.30769 6.68729 2.30769 7.33551V8.96489H17.6923V7.33551C17.6923 6.68729 17.4492 6.06563 17.0164 5.60728C16.5836 5.14892 15.9967 4.89142 15.3846 4.89142V6.11346C15.3846 6.43757 15.263 6.7484 15.0467 6.97758C14.8303 7.20676 14.5368 7.33551 14.2308 7.33551C13.9248 7.33551 13.6313 7.20676 13.4149 6.97758C13.1985 6.7484 13.0769 6.43757 13.0769 6.11346V4.89142H6.92308V6.10858C6.92308 6.43268 6.80151 6.74351 6.58512 6.97269C6.36874 7.20187 6.07525 7.33062 5.76923 7.33062ZM13.0769 2.44734H6.92308V1.22204C6.92308 0.897936 6.80151 0.587105 6.58512 0.357928C6.36874 0.12875 6.07525 0 5.76923 0C5.46321 0 5.16973 0.12875 4.95334 0.357928C4.73695 0.587105 4.61538 0.897936 4.61538 1.22204V2.44734C3.39131 2.44734 2.21737 2.96234 1.35181 3.87905C0.486263 4.79576 0 6.03908 0 7.33551V17.1118C0 18.4083 0.486263 19.6516 1.35181 20.5683C2.21737 21.485 3.39131 22 4.61538 22H15.3846C16.6087 22 17.7826 21.485 18.6482 20.5683C19.5137 19.6516 20 18.4083 20 17.1118V7.33551C20 6.03908 19.5137 4.79576 18.6482 3.87905C17.7826 2.96234 16.6087 2.44734 15.3846 2.44734V1.2253C15.3846 0.901194 15.263 0.590364 15.0467 0.361186C14.8303 0.132009 14.5368 0.00325873 14.2308 0.00325873C13.9248 0.00325873 13.6313 0.132009 13.4149 0.361186C13.1985 0.590364 13.0769 0.901194 13.0769 1.2253V2.44734ZM2.30769 11.409V17.1118C2.30769 17.76 2.55082 18.3817 2.9836 18.8401C3.41638 19.2984 4.00335 19.5559 4.61538 19.5559H15.3846C15.9967 19.5559 16.5836 19.2984 17.0164 18.8401C17.4492 18.3817 17.6923 17.76 17.6923 17.1118V11.409H2.30769Z" fill="#05445E"/>
</svg>
