<svg width="25" height="25" viewBox="0 0 25 25" fill="none" xmlns="http://www.w3.org/2000/svg">
<g clip-path="url(#clip0_650_882)">
<path d="M20.8333 18.2292C21.2346 18.2294 21.6204 18.3839 21.9108 18.6608C22.2012 18.9377 22.374 19.3158 22.3932 19.7166C22.4125 20.1174 22.2769 20.5102 22.0144 20.8137C21.7519 21.1173 21.3827 21.3081 20.9833 21.3469L20.8333 21.3542H4.16666C3.7654 21.354 3.37959 21.1994 3.08918 20.9225C2.79877 20.6456 2.62603 20.2676 2.60674 19.8667C2.58746 19.4659 2.72311 19.0731 2.9856 18.7696C3.24808 18.4661 3.61727 18.2752 4.01666 18.2365L4.16666 18.2292H20.8333ZM20.8333 10.9375C21.2477 10.9375 21.6452 11.1021 21.9382 11.3951C22.2312 11.6882 22.3958 12.0856 22.3958 12.5C22.3958 12.9144 22.2312 13.3118 21.9382 13.6048C21.6452 13.8979 21.2477 14.0625 20.8333 14.0625H4.16666C3.75226 14.0625 3.35484 13.8979 3.06181 13.6048C2.76878 13.3118 2.60416 12.9144 2.60416 12.5C2.60416 12.0856 2.76878 11.6882 3.06181 11.3951C3.35484 11.1021 3.75226 10.9375 4.16666 10.9375H20.8333ZM20.8333 3.64583C21.2477 3.64583 21.6452 3.81045 21.9382 4.10347C22.2312 4.3965 22.3958 4.79393 22.3958 5.20833C22.3958 5.62273 22.2312 6.02016 21.9382 6.31318C21.6452 6.60621 21.2477 6.77083 20.8333 6.77083H4.16666C3.75226 6.77083 3.35484 6.60621 3.06181 6.31318C2.76878 6.02016 2.60416 5.62273 2.60416 5.20833C2.60416 4.79393 2.76878 4.3965 3.06181 4.10347C3.35484 3.81045 3.75226 3.64583 4.16666 3.64583H20.8333Z" fill="white"/>
</g>
<defs>
<clipPath id="clip0_650_882">
<rect width="25" height="25" fill="white"/>
</clipPath>
</defs>
</svg>
