<svg width="24" height="17" viewBox="0 0 24 17" fill="none" xmlns="http://www.w3.org/2000/svg">
<path d="M13.7143 6.8C13.7143 7.70174 13.3531 8.56654 12.7101 9.20416C12.0671 9.84179 11.195 10.2 10.2857 10.2C9.3764 10.2 8.50433 9.84179 7.86135 9.20416C7.21837 8.56654 6.85714 7.70174 6.85714 6.8C6.85714 5.89826 7.21837 5.03346 7.86135 4.39584C8.50433 3.75821 9.3764 3.4 10.2857 3.4C11.195 3.4 12.0671 3.75821 12.7101 4.39584C13.3531 5.03346 13.7143 5.89826 13.7143 6.8ZM12 6.8C12 6.34913 11.8194 5.91673 11.4979 5.59792C11.1764 5.27911 10.7404 5.1 10.2857 5.1C9.83106 5.1 9.39502 5.27911 9.07353 5.59792C8.75204 5.91673 8.57143 6.34913 8.57143 6.8C8.57143 7.25087 8.75204 7.68327 9.07353 8.00208C9.39502 8.32089 9.83106 8.5 10.2857 8.5C10.7404 8.5 11.1764 8.32089 11.4979 8.00208C11.8194 7.68327 12 7.25087 12 6.8ZM0 2.125C0 0.952 0.96 0 2.14286 0H18.4286C19.6114 0 20.5714 0.952 20.5714 2.125V11.475C20.5714 12.648 19.6114 13.6 18.4286 13.6H2.14286C0.96 13.6 0 12.648 0 11.475V2.125ZM2.14286 1.7C2.02919 1.7 1.92018 1.74478 1.83981 1.82448C1.75944 1.90418 1.71429 2.01228 1.71429 2.125V3.4H2.57143C2.79876 3.4 3.01677 3.31045 3.17752 3.15104C3.33827 2.99163 3.42857 2.77543 3.42857 2.55V1.7H2.14286ZM1.71429 11.475C1.71429 11.7096 1.90629 11.9 2.14286 11.9H3.42857V11.05C3.42857 10.8246 3.33827 10.6084 3.17752 10.449C3.01677 10.2896 2.79876 10.2 2.57143 10.2H1.71429V11.475ZM5.14286 11.05V11.9H15.4286V11.05C15.4286 10.3737 15.6995 9.7251 16.1817 9.24688C16.664 8.76866 17.318 8.5 18 8.5H18.8571V5.1H18C17.318 5.1 16.664 4.83134 16.1817 4.35312C15.6995 3.8749 15.4286 3.2263 15.4286 2.55V1.7H5.14286V2.55C5.14286 3.2263 4.87194 3.8749 4.3897 4.35312C3.90747 4.83134 3.25341 5.1 2.57143 5.1H1.71429V8.5H2.57143C3.25341 8.5 3.90747 8.76866 4.3897 9.24688C4.87194 9.7251 5.14286 10.3737 5.14286 11.05ZM17.1429 11.9H18.4286C18.5422 11.9 18.6512 11.8552 18.7316 11.7755C18.812 11.6958 18.8571 11.5877 18.8571 11.475V10.2H18C17.7727 10.2 17.5547 10.2896 17.3939 10.449C17.2332 10.6084 17.1429 10.8246 17.1429 11.05V11.9ZM18.8571 3.4V2.125C18.8571 2.01228 18.812 1.90418 18.7316 1.82448C18.6512 1.74478 18.5422 1.7 18.4286 1.7H17.1429V2.55C17.1429 2.77543 17.2332 2.99163 17.3939 3.15104C17.5547 3.31045 17.7727 3.4 18 3.4H18.8571ZM6 17C5.45695 17.0002 4.92777 16.8299 4.48832 16.5135C4.04886 16.1971 3.7217 15.7509 3.55371 15.2388C3.79143 15.2796 4.03543 15.3 4.28571 15.3H18.4286C19.4515 15.3 20.4326 14.897 21.156 14.1797C21.8793 13.4624 22.2857 12.4895 22.2857 11.475V3.5445C22.7873 3.72035 23.2215 4.04614 23.5285 4.47697C23.8356 4.90779 24.0003 5.42245 24 5.95V11.475C24 12.2006 23.8559 12.919 23.5759 13.5893C23.2959 14.2597 22.8855 14.8687 22.3682 15.3818C21.8508 15.8948 21.2366 16.3018 20.5607 16.5794C19.8847 16.8571 19.1602 17 18.4286 17H6Z" fill="#05445E"/>
</svg>
