<svg width="38" height="45" viewBox="0 0 38 45" fill="none" xmlns="http://www.w3.org/2000/svg">
<path d="M10.2734 29.625V41H7.92969L3.35938 33.375V41H1.01562V29.625H3.35938L7.9375 37.2578V29.625H10.2734ZM11.8125 36.8594V36.6953C11.8125 36.0755 11.901 35.5052 12.0781 34.9844C12.2552 34.4583 12.513 34.0026 12.8516 33.6172C13.1901 33.2318 13.6068 32.9323 14.1016 32.7188C14.5964 32.5 15.1641 32.3906 15.8047 32.3906C16.4453 32.3906 17.0156 32.5 17.5156 32.7188C18.0156 32.9323 18.4349 33.2318 18.7734 33.6172C19.1172 34.0026 19.3776 34.4583 19.5547 34.9844C19.7318 35.5052 19.8203 36.0755 19.8203 36.6953V36.8594C19.8203 37.474 19.7318 38.0443 19.5547 38.5703C19.3776 39.0911 19.1172 39.5469 18.7734 39.9375C18.4349 40.3229 18.0182 40.6224 17.5234 40.8359C17.0286 41.0495 16.4609 41.1562 15.8203 41.1562C15.1797 41.1562 14.6094 41.0495 14.1094 40.8359C13.6146 40.6224 13.1953 40.3229 12.8516 39.9375C12.513 39.5469 12.2552 39.0911 12.0781 38.5703C11.901 38.0443 11.8125 37.474 11.8125 36.8594ZM14.0625 36.6953V36.8594C14.0625 37.2135 14.0938 37.5443 14.1562 37.8516C14.2188 38.1589 14.3177 38.4297 14.4531 38.6641C14.5938 38.8932 14.776 39.0729 15 39.2031C15.224 39.3333 15.4974 39.3984 15.8203 39.3984C16.1328 39.3984 16.401 39.3333 16.625 39.2031C16.849 39.0729 17.0286 38.8932 17.1641 38.6641C17.2995 38.4297 17.3984 38.1589 17.4609 37.8516C17.5286 37.5443 17.5625 37.2135 17.5625 36.8594V36.6953C17.5625 36.3516 17.5286 36.0286 17.4609 35.7266C17.3984 35.4193 17.2969 35.1484 17.1562 34.9141C17.0208 34.6745 16.8411 34.487 16.6172 34.3516C16.3932 34.2161 16.1224 34.1484 15.8047 34.1484C15.487 34.1484 15.2161 34.2161 14.9922 34.3516C14.7734 34.487 14.5938 34.6745 14.4531 34.9141C14.3177 35.1484 14.2188 35.4193 14.1562 35.7266C14.0938 36.0286 14.0625 36.3516 14.0625 36.6953ZM23.9531 39.3594L25.8281 32.5469H28.1797L25.3281 41H23.9062L23.9531 39.3594ZM22.6641 32.5469L24.5469 39.3672L24.5859 41H23.1562L20.3047 32.5469H22.6641ZM28.7031 36.8594V36.6953C28.7031 36.0755 28.7917 35.5052 28.9688 34.9844C29.1458 34.4583 29.4036 34.0026 29.7422 33.6172C30.0807 33.2318 30.4974 32.9323 30.9922 32.7188C31.487 32.5 32.0547 32.3906 32.6953 32.3906C33.3359 32.3906 33.9062 32.5 34.4062 32.7188C34.9062 32.9323 35.3255 33.2318 35.6641 33.6172C36.0078 34.0026 36.2682 34.4583 36.4453 34.9844C36.6224 35.5052 36.7109 36.0755 36.7109 36.6953V36.8594C36.7109 37.474 36.6224 38.0443 36.4453 38.5703C36.2682 39.0911 36.0078 39.5469 35.6641 39.9375C35.3255 40.3229 34.9089 40.6224 34.4141 40.8359C33.9193 41.0495 33.3516 41.1562 32.7109 41.1562C32.0703 41.1562 31.5 41.0495 31 40.8359C30.5052 40.6224 30.0859 40.3229 29.7422 39.9375C29.4036 39.5469 29.1458 39.0911 28.9688 38.5703C28.7917 38.0443 28.7031 37.474 28.7031 36.8594ZM30.9531 36.6953V36.8594C30.9531 37.2135 30.9844 37.5443 31.0469 37.8516C31.1094 38.1589 31.2083 38.4297 31.3438 38.6641C31.4844 38.8932 31.6667 39.0729 31.8906 39.2031C32.1146 39.3333 32.388 39.3984 32.7109 39.3984C33.0234 39.3984 33.2917 39.3333 33.5156 39.2031C33.7396 39.0729 33.9193 38.8932 34.0547 38.6641C34.1901 38.4297 34.2891 38.1589 34.3516 37.8516C34.4193 37.5443 34.4531 37.2135 34.4531 36.8594V36.6953C34.4531 36.3516 34.4193 36.0286 34.3516 35.7266C34.2891 35.4193 34.1875 35.1484 34.0469 34.9141C33.9115 34.6745 33.7318 34.487 33.5078 34.3516C33.2839 34.2161 33.013 34.1484 32.6953 34.1484C32.3776 34.1484 32.1068 34.2161 31.8828 34.3516C31.6641 34.487 31.4844 34.6745 31.3438 34.9141C31.2083 35.1484 31.1094 35.4193 31.0469 35.7266C30.9844 36.0286 30.9531 36.3516 30.9531 36.6953Z" fill="#FFFCFE"/>
<path d="M21 2H13C12.4696 2 11.9609 2.21071 11.5858 2.58579C11.2107 2.96086 11 3.46957 11 4V20C11 20.5304 11.2107 21.0391 11.5858 21.4142C11.9609 21.7893 12.4696 22 13 22H25C25.5304 22 26.0391 21.7893 26.4142 21.4142C26.7893 21.0391 27 20.5304 27 20V8L21 2Z" stroke="#FFFCFE" stroke-linecap="round" stroke-linejoin="round"/>
<path d="M21 2V8H27" stroke="#FFFCFE" stroke-linecap="round" stroke-linejoin="round"/>
<path d="M19 18V12" stroke="#FFFCFE" stroke-linecap="round" stroke-linejoin="round"/>
<path d="M16 15H22" stroke="#FFFCFE" stroke-linecap="round" stroke-linejoin="round"/>
</svg>
