<svg width="230" height="230" viewBox="0 0 230 230" fill="none" xmlns="http://www.w3.org/2000/svg">
<g id="3553214_caring_earth_globe_hands_holding_icon 1">
<path id="Vector" d="M175.796 75.2317C175.796 63.1962 172.227 51.431 165.541 41.4239C158.854 31.4167 149.35 23.6171 138.231 19.0113C127.112 14.4055 114.876 13.2004 103.072 15.5484C91.2679 17.8965 80.425 23.6921 71.9146 32.2025C63.4043 40.7128 57.6086 51.5557 55.2606 63.36C52.9126 75.1642 54.1177 87.3996 58.7235 98.5189C63.3292 109.638 71.1289 119.142 81.136 125.829C91.1432 132.515 102.908 136.084 114.944 136.084C131.083 136.084 146.561 129.673 157.973 118.261C169.385 106.849 175.796 91.3708 175.796 75.2317ZM164.775 60.9877L164.099 60.5369C163.511 60.1581 162.843 59.9213 162.148 59.8452C161.453 59.7691 160.749 59.8558 160.093 60.0985C159.438 60.3412 158.847 60.7332 158.369 61.2435C157.89 61.7538 157.538 62.3684 157.338 63.0387L155.084 70.9269L149.652 63.1063C149.305 62.598 148.857 62.1663 148.337 61.8376C147.817 61.509 147.234 61.2904 146.626 61.1954C146.018 61.1004 145.397 61.1309 144.801 61.2851C144.205 61.4393 143.647 61.714 143.161 62.0921L132.276 70.5438C131.365 71.2391 130.753 72.2554 130.564 73.3857C130.376 74.5161 130.625 75.6759 131.261 76.6291L134.034 80.8887L126.506 90.6702C126.139 91.1457 125.871 91.6898 125.717 92.2704L121.412 108.701L113.637 110.819L109.129 106.312L105.861 90.8054C105.696 90.0269 105.327 89.3061 104.792 88.7162C104.258 88.1264 103.577 87.6886 102.818 87.4473L90.7155 83.6158L87.718 75.2993L92.2256 70.7917L102.706 71.6482H109.467C109.871 71.6493 110.272 71.5962 110.662 71.4904L121.705 68.4027C122.309 68.2441 122.873 67.9618 123.362 67.5739C123.851 67.1859 124.253 66.7007 124.545 66.1489L127.227 60.8525C127.715 59.8743 127.831 58.7521 127.553 57.6948C127.275 56.6376 126.623 55.7173 125.717 55.1053L111.969 45.8647C111.022 45.1902 109.851 44.9076 108.701 45.0759L98.7391 46.7662L99.1673 43.0475L106.875 40.7937C107.505 40.7876 108.127 40.6494 108.701 40.388L115.462 37.3228L121.705 39.4414C122.468 39.7093 123.29 39.767 124.083 39.6084C124.876 39.4498 125.611 39.0807 126.213 38.5399L130.473 34.7535C130.949 34.329 131.33 33.8082 131.591 33.2254C131.851 32.6426 131.985 32.0111 131.983 31.3728V26.3468C139.811 29.0916 146.869 33.6706 152.567 39.7011C158.264 45.7315 162.434 53.0382 164.73 61.0102L164.775 60.9877ZM114.944 126.979C107.717 127.118 100.541 125.744 93.8763 122.946C87.2118 120.147 81.2061 115.986 76.2451 110.729C71.2841 105.472 67.4774 99.2357 65.0693 92.4203C62.6613 85.605 61.7052 78.3614 62.2625 71.1546C62.8198 63.9479 64.8781 56.9374 68.3053 50.5733C71.7324 44.2091 76.4527 38.6321 82.1629 34.2003C87.8731 29.7685 94.4471 26.5799 101.463 24.8393C108.478 23.0986 115.78 22.8445 122.9 24.093V29.2993L122.088 30.0205L116.544 28.195C115.471 27.8435 114.304 27.9078 113.276 28.3753L105.929 31.756L105.275 31.8912L93.7131 35.2268C92.8605 35.4738 92.0999 35.9671 91.5266 36.6447C90.9532 37.3223 90.5927 38.154 90.4902 39.0357L89.0928 51.8373C89.0132 52.5316 89.0961 53.235 89.335 53.8918C89.5739 54.5486 89.9623 55.1409 90.4694 55.6218C90.9765 56.1027 91.5886 56.4591 92.2571 56.6628C92.9257 56.8665 93.6325 56.912 94.3216 56.7956L108.43 54.4291L117.198 60.289L108.768 62.5428H103.247L90.8733 61.5511C90.2204 61.4972 89.5636 61.5862 88.9486 61.8119C88.3336 62.0377 87.7752 62.3948 87.3123 62.8584L79.2437 70.9946C78.6425 71.6009 78.2259 72.3655 78.0423 73.1994C77.8588 74.0334 77.9159 74.9023 78.207 75.705L82.9399 88.7996C83.175 89.4525 83.5576 90.0424 84.0579 90.5232C84.5583 91.0041 85.163 91.3629 85.8248 91.5717L97.522 95.2905L100.542 109.534C100.728 110.39 101.158 111.173 101.782 111.788L109.129 119.046C109.69 119.601 110.387 120 111.15 120.202C111.914 120.403 112.717 120.401 113.479 120.195L126.213 116.747C126.977 116.539 127.673 116.134 128.231 115.572C128.789 115.011 129.189 114.312 129.391 113.546L134.124 95.5159L143.139 83.9314C143.707 83.1913 144.032 82.293 144.069 81.3605C144.105 80.4279 143.851 79.5071 143.342 78.7251L141.088 75.2542L144.919 72.1215L152.92 83.7961C153.403 84.5003 154.075 85.0531 154.859 85.3902C155.643 85.7272 156.507 85.8347 157.35 85.7001C158.193 85.5656 158.98 85.1944 159.62 84.63C160.261 84.0655 160.727 83.3308 160.966 82.5115L164.189 71.2425L166.691 72.9103C166.691 73.609 166.691 74.3076 166.691 75.0289C166.706 81.8381 165.379 88.5836 162.786 94.8799C160.193 101.176 156.385 106.9 151.58 111.724C146.775 116.549 141.066 120.379 134.78 122.996C128.493 125.614 121.753 126.967 114.944 126.979Z" fill="#189AB4"/>
<path id="Vector_2" d="M211.429 142.485C212.533 137.189 213.096 107.168 212.961 103.945C212.961 103.675 209.242 76.1333 201.039 70.5664C200.185 69.9562 199.203 69.5495 198.167 69.3776C197.132 69.2057 196.071 69.2732 195.066 69.5747C190.558 70.9721 186.795 75.7952 184.924 82.8271C183.357 88.7808 183.357 95.0389 184.924 100.993C184.924 102.638 184.496 108.453 183.91 114.515C181.55 114.127 179.13 114.35 176.882 115.163C174.633 115.976 172.629 117.351 171.063 119.158L157.383 134.935C156.684 135.746 155.715 136.963 154.994 137.932C151.049 138.879 143.206 142.44 135.138 155.196C128.914 165.173 126.231 176.955 127.52 188.643H127.024C125.828 188.643 124.682 189.118 123.837 189.963C122.991 190.808 122.516 191.955 122.516 193.15L122.313 210.64C122.313 211.835 122.788 212.982 123.634 213.827C124.479 214.673 125.626 215.147 126.821 215.147C128.017 215.147 129.163 214.673 130.008 213.827C130.854 212.982 131.329 211.835 131.329 210.64L131.464 197.635L171.131 197.951L170.995 210.91C170.995 212.106 171.47 213.252 172.316 214.098C173.161 214.943 174.308 215.418 175.503 215.418C176.699 215.418 177.845 214.943 178.69 214.098C179.536 213.252 180.011 212.106 180.011 210.91L180.304 193.579C180.291 192.618 179.971 191.686 179.391 190.92C178.811 190.154 178.002 189.593 177.081 189.319V186.479C199.123 160.921 210.662 146.136 211.429 142.485ZM142.733 160.02C150.756 147.241 157.473 146.632 157.383 146.632C158.082 146.632 158.773 146.469 159.398 146.156C160.024 145.843 160.569 145.389 160.989 144.829C161.552 144.063 163.242 141.877 164.121 140.862L177.802 125.086C178.209 124.54 178.725 124.083 179.316 123.745C179.907 123.407 180.562 123.194 181.239 123.12C181.917 123.046 182.602 123.113 183.252 123.316C183.903 123.518 184.504 123.853 185.02 124.298C185.535 124.744 185.953 125.291 186.248 125.905C186.542 126.519 186.707 127.188 186.732 127.869C186.757 128.549 186.641 129.228 186.392 129.862C186.143 130.496 185.766 131.072 185.285 131.554L171.604 147.331C170.946 148.242 170.652 149.365 170.779 150.482C170.907 151.598 171.446 152.627 172.293 153.366C173.139 154.105 174.231 154.501 175.354 154.477C176.478 154.453 177.552 154.01 178.365 153.236L192.046 137.459C194.219 134.983 195.449 131.819 195.519 128.525C195.589 125.231 194.495 122.018 192.429 119.451C194.322 100.993 193.917 99.5728 193.624 98.6713C192.428 94.197 192.428 89.4875 193.624 85.0133C194.126 82.7577 195.161 80.6554 196.644 78.8829C200.513 86.9425 202.99 95.5993 203.969 104.486C204.126 108.498 203.405 135.814 202.661 140.389C200.813 144.243 184.361 164.279 169.26 181.746C168.573 182.536 168.183 183.54 168.156 184.586V188.958L136.603 188.71C135.25 178.725 137.418 168.58 142.733 160.02Z" fill="#189AB4"/>
<path id="Vector_3" d="M102.976 188.643H102.48C103.757 176.997 101.09 165.26 94.9075 155.309C86.8389 142.463 79.0182 138.969 75.0516 138.045C74.3078 137.076 73.3387 135.791 72.6625 135.048L58.982 119.271C57.4159 117.465 55.412 116.091 53.1624 115.282C50.9129 114.473 48.4931 114.256 46.1353 114.651C45.5493 108.52 45.0986 102.683 45.1211 101.128C46.6885 95.1741 46.6885 88.9161 45.1211 82.9623C43.2505 75.9305 39.5768 71.1073 34.979 69.71C33.9737 69.4101 32.9131 69.3435 31.8781 69.5154C30.8431 69.6872 29.861 70.0929 29.0065 70.7016C20.7576 76.1108 17.0614 103.675 17.0388 104.125C16.9036 107.146 17.467 137.189 18.5714 142.44C19.3377 146.114 30.8771 160.899 52.8517 186.389V189.229C51.9364 189.522 51.1387 190.1 50.5751 190.878C50.0116 191.657 49.7115 192.595 49.7189 193.556L49.8992 211.046C49.8992 212.241 50.3741 213.388 51.2194 214.233C52.0648 215.078 53.2113 215.553 54.4068 215.553C55.6023 215.553 56.7488 215.078 57.5941 214.233C58.4395 213.388 58.9144 212.241 58.9144 211.046L58.7791 198.086L98.446 197.771L98.5812 210.753C98.5812 211.948 99.0561 213.095 99.9014 213.94C100.747 214.785 101.893 215.26 103.089 215.26C104.284 215.26 105.431 214.785 106.276 213.94C107.121 213.095 107.596 211.948 107.596 210.753L107.416 193.263C107.431 192.667 107.328 192.075 107.112 191.519C106.897 190.964 106.573 190.456 106.16 190.027C105.747 189.597 105.253 189.253 104.707 189.016C104.16 188.778 103.572 188.652 102.976 188.643ZM27.3387 140.389C26.5724 135.881 25.8737 108.52 26.0089 104.689C26.9719 95.7342 29.4487 87.0082 33.3338 78.8829C34.8252 80.6754 35.8613 82.8017 36.3539 85.0809C37.5481 89.5552 37.5481 94.2645 36.3539 98.7389C36.0834 99.6404 35.6777 100.993 37.5484 119.519C35.4819 122.072 34.379 125.27 34.4325 128.553C34.4861 131.837 35.6928 134.998 37.8414 137.482L51.5219 153.258C52.3358 154.033 53.4097 154.476 54.5331 154.5C55.6565 154.524 56.7484 154.127 57.5947 153.388C58.441 152.649 58.9808 151.621 59.1082 150.504C59.2356 149.388 58.9414 148.264 58.2833 147.353L44.6028 131.577C44.1453 131.089 43.7912 130.514 43.5618 129.886C43.3324 129.258 43.2324 128.59 43.2679 127.922C43.3033 127.254 43.4735 126.6 43.7681 126C44.0627 125.4 44.4757 124.865 44.9822 124.429C45.4887 123.992 46.0783 123.663 46.7155 123.46C47.3527 123.257 48.0243 123.185 48.69 123.249C49.3557 123.312 50.0016 123.51 50.589 123.829C51.1764 124.149 51.693 124.584 52.1079 125.108L65.7884 140.885C66.6674 141.899 68.3352 144.108 68.9212 144.874C69.3172 145.432 69.841 145.886 70.4488 146.2C71.0566 146.514 71.7307 146.677 72.4146 146.677C72.4146 146.677 79.176 147.286 87.2446 160.065C92.503 168.623 94.6594 178.729 93.3524 188.688L61.7992 188.936V184.563C61.7719 183.517 61.3815 182.513 60.6949 181.724C45.6395 164.279 29.2995 144.243 27.3387 140.389Z" fill="#189AB4"/>
</g>
</svg>
