<svg width="1133" height="707" viewBox="0 0 1133 707" fill="none" xmlns="http://www.w3.org/2000/svg">
<g filter="url(#filter0_d_1_1050)">
<g filter="url(#filter1_d_1_1050)">
<rect x="5" y="1" width="1123" height="697" fill="#FEFCFF"/>
<rect x="4.5" y="0.5" width="1124" height="698" stroke="#D4D4D4"/>
</g>
<rect x="5" y="1" width="1123" height="80" fill="#05445E"/>
<rect x="5" y="81" width="290" height="617" fill="#F3EDF7"/>
<circle cx="1065" cy="41" r="20" fill="#C4C4C4"/>
<rect x="322" y="195" width="763" height="76" fill="#F3EDF7"/>
<rect x="322" y="296" width="763" height="76" fill="#F3EDF7"/>
<rect x="322" y="401" width="763" height="76" fill="#F3EDF7"/>
<rect x="322" y="502" width="763" height="76" fill="#F3EDF7"/>
<rect x="322" y="132" width="75" height="12" fill="#05445E"/>
<rect x="91" y="211" width="119" height="12" fill="#05445E"/>
<rect x="91" y="240" width="119" height="12" fill="#05445E"/>
<rect x="91" y="270" width="119" height="12" fill="#05445E"/>
<rect x="91" y="300" width="119" height="12" fill="#05445E"/>
<rect x="91" y="329" width="119" height="12" fill="#05445E"/>
<rect x="91" y="359" width="119" height="12" fill="#05445E"/>
<rect x="91" y="389" width="119" height="12" fill="#05445E"/>
<rect x="91" y="447" width="119" height="12" fill="#05445E"/>
<rect x="91" y="477" width="119" height="12" fill="#05445E"/>
<rect x="91" y="507" width="119" height="12" fill="#05445E"/>
<rect x="91" y="180" width="66" height="12" fill="#D4F1F4"/>
<rect x="91" y="418" width="66" height="12" fill="#D4F1F4"/>
<rect x="352" y="220" width="145" height="12" fill="#05445E"/>
<rect x="352" y="239" width="89" height="8" fill="#CBD5E0"/>
<rect x="352" y="321" width="145" height="12" fill="#05445E"/>
<rect x="801" y="324" width="47" height="12" fill="#05445E"/>
<rect x="352" y="340" width="89" height="8" fill="#CBD5E0"/>
<rect x="858" y="326" width="26" height="8" fill="#CBD5E0"/>
<rect x="801" y="227" width="47" height="12" fill="#05445E"/>
<rect x="858" y="229" width="26" height="8" fill="#CBD5E0"/>
<rect x="801" y="433" width="47" height="12" fill="#05445E"/>
<rect x="858" y="435" width="26" height="8" fill="#CBD5E0"/>
<rect x="801" y="533" width="47" height="12" fill="#05445E"/>
<rect x="858" y="535" width="26" height="8" fill="#CBD5E0"/>
<rect x="352" y="425" width="145" height="12" fill="#05445E"/>
<rect x="352" y="444" width="89" height="8" fill="#CBD5E0"/>
<rect x="352" y="529" width="145" height="12" fill="#05445E"/>
<rect x="352" y="548" width="89" height="8" fill="#CBD5E0"/>
<rect x="582" y="132" width="75" height="12" fill="#05445E"/>
<rect x="582" y="225" width="86" height="17" fill="#9AE6B4"/>
<rect x="582" y="323" width="86" height="17" fill="#FEB2B2"/>
<rect x="582" y="432" width="86" height="17" fill="#9AE6B4"/>
<rect x="801" y="132" width="75" height="12" fill="#05445E"/>
<rect x="991" y="125" width="92" height="27" rx="5" fill="#05445E"/>
<circle cx="1010" cy="233" r="3" fill="#189AB4"/>
<circle cx="1022" cy="233" r="3" fill="#189AB4"/>
<circle cx="1034" cy="233" r="3" fill="#189AB4"/>
<circle cx="1013" cy="334" r="3" fill="#189AB4"/>
<circle cx="1025" cy="334" r="3" fill="#189AB4"/>
<circle cx="1037" cy="334" r="3" fill="#189AB4"/>
<circle cx="1013" cy="440" r="3" fill="#189AB4"/>
<circle cx="1025" cy="440" r="3" fill="#189AB4"/>
<circle cx="1037" cy="440" r="3" fill="#189AB4"/>
<circle cx="1013" cy="540" r="3" fill="#189AB4"/>
<circle cx="1025" cy="540" r="3" fill="#189AB4"/>
<circle cx="1037" cy="540" r="3" fill="#189AB4"/>
<circle cx="229" cy="247" r="5" fill="#75E6DA"/>
<circle cx="78" cy="246" r="5" fill="#A0AEC0"/>
<circle cx="78" cy="216" r="5" fill="#A0AEC0"/>
<circle cx="78" cy="307" r="5" fill="#A0AEC0"/>
<circle cx="78" cy="277" r="5" fill="#A0AEC0"/>
<circle cx="78" cy="365" r="5" fill="#A0AEC0"/>
<circle cx="78" cy="335" r="5" fill="#A0AEC0"/>
<circle cx="78" cy="454" r="5" fill="#A0AEC0"/>
<circle cx="78" cy="483" r="5" fill="#A0AEC0"/>
<circle cx="78" cy="513" r="5" fill="#A0AEC0"/>
<circle cx="78" cy="396" r="5" fill="#A0AEC0"/>
<circle cx="640" cy="639" r="15" fill="#05445E"/>
<circle cx="679" cy="639" r="15" fill="#E4DDE6"/>
<circle cx="718" cy="639" r="15" fill="#E2E8F0"/>
<path d="M641.266 633.602V645H639.016V636.195L636.312 637.055V635.281L641.023 633.602H641.266Z" fill="#F3EDF7"/>
<path d="M682.562 643.242V645H674.781V643.5L678.461 639.555C678.831 639.143 679.122 638.781 679.336 638.469C679.549 638.151 679.703 637.867 679.797 637.617C679.896 637.362 679.945 637.12 679.945 636.891C679.945 636.547 679.888 636.253 679.773 636.008C679.659 635.758 679.49 635.565 679.266 635.43C679.047 635.294 678.776 635.227 678.453 635.227C678.109 635.227 677.812 635.31 677.562 635.477C677.318 635.643 677.13 635.875 677 636.172C676.875 636.469 676.812 636.805 676.812 637.18H674.555C674.555 636.503 674.716 635.883 675.039 635.32C675.362 634.753 675.818 634.302 676.406 633.969C676.995 633.63 677.693 633.461 678.5 633.461C679.297 633.461 679.969 633.591 680.516 633.852C681.068 634.107 681.484 634.477 681.766 634.961C682.052 635.44 682.195 636.013 682.195 636.68C682.195 637.055 682.135 637.422 682.016 637.781C681.896 638.135 681.724 638.49 681.5 638.844C681.281 639.193 681.016 639.547 680.703 639.906C680.391 640.266 680.044 640.638 679.664 641.023L677.688 643.242H682.562Z" fill="#05445E"/>
<path d="M716.086 638.336H717.289C717.674 638.336 717.992 638.271 718.242 638.141C718.492 638.005 718.677 637.818 718.797 637.578C718.922 637.333 718.984 637.049 718.984 636.727C718.984 636.435 718.927 636.177 718.812 635.953C718.703 635.724 718.534 635.547 718.305 635.422C718.076 635.292 717.786 635.227 717.438 635.227C717.161 635.227 716.906 635.281 716.672 635.391C716.438 635.5 716.25 635.654 716.109 635.852C715.969 636.049 715.898 636.289 715.898 636.57H713.641C713.641 635.945 713.807 635.401 714.141 634.938C714.479 634.474 714.932 634.112 715.5 633.852C716.068 633.591 716.693 633.461 717.375 633.461C718.146 633.461 718.82 633.586 719.398 633.836C719.977 634.081 720.427 634.443 720.75 634.922C721.073 635.401 721.234 635.995 721.234 636.703C721.234 637.062 721.151 637.411 720.984 637.75C720.818 638.083 720.578 638.385 720.266 638.656C719.958 638.922 719.583 639.135 719.141 639.297C718.698 639.453 718.201 639.531 717.648 639.531H716.086V638.336ZM716.086 640.047V638.883H717.648C718.268 638.883 718.812 638.953 719.281 639.094C719.75 639.234 720.143 639.438 720.461 639.703C720.779 639.964 721.018 640.273 721.18 640.633C721.341 640.987 721.422 641.38 721.422 641.812C721.422 642.344 721.32 642.818 721.117 643.234C720.914 643.646 720.628 643.995 720.258 644.281C719.893 644.568 719.466 644.786 718.977 644.938C718.487 645.083 717.953 645.156 717.375 645.156C716.896 645.156 716.424 645.091 715.961 644.961C715.503 644.826 715.086 644.625 714.711 644.359C714.341 644.089 714.044 643.75 713.82 643.344C713.602 642.932 713.492 642.445 713.492 641.883H715.75C715.75 642.174 715.823 642.435 715.969 642.664C716.115 642.893 716.315 643.073 716.57 643.203C716.831 643.333 717.12 643.398 717.438 643.398C717.797 643.398 718.104 643.333 718.359 643.203C718.62 643.068 718.818 642.88 718.953 642.641C719.094 642.396 719.164 642.112 719.164 641.789C719.164 641.372 719.089 641.039 718.938 640.789C718.786 640.534 718.57 640.346 718.289 640.227C718.008 640.107 717.674 640.047 717.289 640.047H716.086Z" fill="#05445E"/>
</g>
<defs>
<filter id="filter0_d_1_1050" x="0" y="0" width="1133" height="707" filterUnits="userSpaceOnUse" color-interpolation-filters="sRGB">
<feFlood flood-opacity="0" result="BackgroundImageFix"/>
<feColorMatrix in="SourceAlpha" type="matrix" values="0 0 0 0 0 0 0 0 0 0 0 0 0 0 0 0 0 0 127 0" result="hardAlpha"/>
<feOffset dy="4"/>
<feGaussianBlur stdDeviation="2"/>
<feComposite in2="hardAlpha" operator="out"/>
<feColorMatrix type="matrix" values="0 0 0 0 0 0 0 0 0 0 0 0 0 0 0 0 0 0 0.25 0"/>
<feBlend mode="normal" in2="BackgroundImageFix" result="effect1_dropShadow_1_1050"/>
<feBlend mode="normal" in="SourceGraphic" in2="effect1_dropShadow_1_1050" result="shape"/>
</filter>
<filter id="filter1_d_1_1050" x="0" y="0" width="1133" height="707" filterUnits="userSpaceOnUse" color-interpolation-filters="sRGB">
<feFlood flood-opacity="0" result="BackgroundImageFix"/>
<feColorMatrix in="SourceAlpha" type="matrix" values="0 0 0 0 0 0 0 0 0 0 0 0 0 0 0 0 0 0 127 0" result="hardAlpha"/>
<feOffset dy="4"/>
<feGaussianBlur stdDeviation="2"/>
<feComposite in2="hardAlpha" operator="out"/>
<feColorMatrix type="matrix" values="0 0 0 0 0 0 0 0 0 0 0 0 0 0 0 0 0 0 0.25 0"/>
<feBlend mode="normal" in2="BackgroundImageFix" result="effect1_dropShadow_1_1050"/>
<feBlend mode="normal" in="SourceGraphic" in2="effect1_dropShadow_1_1050" result="shape"/>
</filter>
</defs>
</svg>
